# xmcd
#
# Track frame offsets: 
#        151
#        20804
#        39283
#        56580
#        77031
#        96537
#        122622
#        144982
#        170785
#        191482
#        215938
#
# Disc length: 3188 seconds
#
# Revision: 3
# Processed by: cddbd v1.5.2PL0 Copyright (c) Steve Scherf et al.
# Submitted via: ExactAudioCopy v1.0b1
#
DISCID=a10c720b
DTITLE=Richie Kotzen - Bi-Polar Blues
DYEAR=1900
DGENRE=Blues
TTITLE0=Gone Tomorrow Blues
TTITLE1=Tied To You
TTITLE2=They're Red Hot
TTITLE3=Tobacco Road
TTITLE4=Broken Man Blues
TTITLE5=The Thrill Is Gone
TTITLE6=From Four Till Late
TTITLE7=A Step Away
TTITLE8=Burn It Down
TTITLE9=No Kinda Hero
TTITLE10=Richie's Boogie
EXTD=This is one of the two albums that young guitarrist Richie\nKotze
EXTD=n (ex former of Poison and Mr. Big) edited in 1999
EXTT0=
EXTT1=
EXTT2=
EXTT3=
EXTT4=
EXTT5=
EXTT6=
EXTT7=
EXTT8=
EXTT9=
EXTT10=
PLAYORDER=
